Simulation
nRows=40
nColumns=15
endheader
time  TH_x TH_y TH_z SC_y  SC_z  SC_x  AC_y  AC_z  AC_x  GH_y  GH_z  GH_yy  EL_x  PS_y
2.8725  0.000000  0.000000  0.000000  -35.20060886466218  -0.1446597343348407  -23.640494470872298  37.91078589767798  22.654387345213113  15.143350196403508  39.512163433214546  6.960371482761906  -32.2838409670356  14.054514227019073  120.000000
2.92995  0.000000  0.000000  0.000000  -35.301143843589074  -0.1460131435073168  -22.815108203340134  38.36877844051847  22.65125650408873  14.716517028101029  51.59786552055774  5.964296028007651  -41.50498020171591  14.418299515389242  120.000000
2.9874  0.000000  0.000000  0.000000  -35.45522963954961  -0.06972787689844796  -21.81135517012174  38.83939064245155  22.521141434074934  14.186419426039322  65.51434274449264  5.471376044286605  -53.02831695500267  14.866123550315523  120.000000
3.0448500000000003  0.000000  0.000000  0.000000  -35.63839934216199  0.08714226568328226  -20.67359699508051  39.28661523993504  22.259880156581396  13.577705938236504  78.9792389499897  5.407298215921383  -64.60613762231715  15.352719871835221  120.000000
3.1023  0.000000  0.000000  0.000000  -35.824549806395275  0.3186764790397149  -19.451016788946397  39.69325456495566  21.878293958769326  12.917019415458558  90.06191454517756  5.621031103395681  -74.28638517665588  15.835814319303699  120.000000
3.15975  0.000000  0.000000  0.000000  -35.99322483712795  0.6083232743171777  -18.194691919690626  40.05667024042348  21.400453625074825  12.234089466330921  98.22194628406773  5.952994885897592  -81.4685874273802  16.28605912488542  120.000000
3.2172  0.000000  0.000000  0.000000  -36.1319388260012  0.9290314692257082  -16.95018076271863  40.381335659386274  20.854951969775378  11.558441447258708  103.81783896189278  6.285787108140456  -86.42783966089759  16.693340018852876  120.000000
3.2746500000000003  0.000000  0.000000  0.000000  -36.23097200160533  1.2531378280915377  -15.755061994837225  40.6801149834883  20.26885655949753  10.910591008473604  107.42449009188626  6.55482163676812  -89.6453187845666  17.064849952627874  120.000000
3.3321  0.000000  0.000000  0.000000  -36.282646818527596  1.5568795188234592  -14.638232202890519  40.96838545918117  19.66470267186951  10.30236595745084  109.54573529187651  6.737305002054841  -91.53331864721983  17.41661702953034  120.000000
3.38955  0.000000  0.000000  0.000000  -36.28548849067252  1.8213474399295024  -13.617370492610274  41.25506412874939  19.0587828215566  9.74209018049438  110.56991038608639  6.837537530004091  -92.40220035523573  17.76479962647491  120.000000
3.447  0.000000  0.000000  0.000000  -36.24540772626631  2.037115911827473  -12.701151167102594  41.542343126390826  18.46265751056554  9.23440166583096  110.78763005821341  6.876681992838944  -92.48726552358019  18.11876316129487  120.000000
3.5044500000000003  0.000000  0.000000  0.000000  -36.17493241157729  2.202414789705917  -11.891967743960027  41.82647896613533  17.886650154045707  8.77880268584705  110.41030160727847  6.882132723188096  -91.96850053865259  18.48062623262561  120.000000
3.5619  0.000000  0.000000  0.000000  -36.08891173971846  2.3207382549527193  -11.187089350126575  42.09806831692298  17.339706674428445  8.372961415369971  109.59887599470626  6.8791513476029245  -90.99404305272543  18.848279170112026  120.000000
3.61935  0.000000  0.000000  0.000000  -35.99946136528934  2.398772901241956  -10.581599310957364  42.345519537511564  16.829000953846275  8.014033578089025  108.47689038284398  6.887658941179012  -89.68529769811856  19.218731465268792  120.000000
3.6768  0.000000  0.000000  0.000000  -35.912341536370555  2.445701427106388  -10.071488440322387  42.55809307226651  16.359960986282967  7.6977527206372205  107.13177762167739  6.921209845171414  -88.13140251852725  19.59048609446125  120.000000
3.7342500000000003  0.000000  0.000000  0.000000  -35.82674547487847  2.470774072056002  -9.655349423187937  42.72603152877398  15.935560655178936  7.417715967301303  105.60984874222048  6.9866931573016355  -86.3800604870663  19.963516974588924  120.000000
3.7917  0.000000  0.000000  0.000000  -35.73679185373916  2.4788045861005275  -9.334055836191391  42.838988976500126  15.555420675229778  7.16671246162231  103.91292924677566  7.084593003704135  -84.43226647236715  20.338348494389855  120.000000
3.84915  0.000000  0.000000  0.000000  -35.63335933288921  2.469774056801214  -9.10962012789325  42.88676855108852  15.21519303304566  6.938894394093482  101.98966411316295  7.211970973046712  -82.23250693360805  20.715188908465866  120.000000
3.9066  0.000000  0.000000  0.000000  -35.50543027255603  2.440126491501459  -8.984649755557943  42.86176313900508  14.908367347955421  6.729422093475739  99.72523258718722  7.365840060449903  -79.65835679618054  21.093399351720784  120.000000
3.9640500000000003  0.000000  0.000000  0.000000  -35.34150161659088  2.3844295571185037  -8.962317345695368  42.760680743601526  14.628495674011058  6.5330486545379465  96.94406705037191  7.547213822595223  -76.52532282249804  21.47060639299691  120.000000
4.0215  0.000000  0.000000  0.000000  -35.13036791833035  2.299169046293025  -9.046258201248158  42.58499102554247  14.369785320134856  6.344380027316936  93.45124130099938  7.768347931064112  -72.63270712803713  21.842973358388704  120.000000
4.07895  0.000000  0.000000  0.000000  -34.863470308935966  2.1836330306797804  -9.239536442044272  42.3399184125692  14.127074342115668  6.159661740142987  89.1052116590938  8.062354478534038  -67.84371286208723  22.204317025484226  120.000000
4.1364  0.000000  0.000000  0.000000  -34.53789872879614  2.0412727001479647  -9.541649233800968  42.03129211683896  13.894760745410395  5.981627951631602  83.93243431211805  8.489098290515463  -62.20661313939188  22.543871352140975  120.000000
4.19385  0.000000  0.000000  0.000000  -34.16306644679711  1.8832374284013886  -9.944316253737275  41.6595253791078  13.665728115313183  5.8255617228422665  78.22268520435972  9.127566420503458  -56.052508927432505  22.843947947151534  120.000000
4.2513000000000005  0.000000  0.000000  0.000000  -33.760357206038364  1.738099008863122  -10.431199945967151  41.22657940051736  13.435430546973713  5.714658949132051  72.49518149485183  10.056604431643464  -49.95517988559764  23.081290925001813  120.000000
4.30875  0.000000  0.000000  0.000000  -33.36731855839906  1.6605422852589253  -10.979017018217101  40.75109074948377  13.204447605446898  5.673964921834561  67.32517939713523  11.341501893554586  -44.546168854546444  23.237452997081203  120.000000
4.3662  0.000000  0.000000  0.000000  -33.05037170565526  1.7160138758448586  -11.55200330898014  40.25857864342005  12.971505033140092  5.741254333636405  63.1340171305831  13.021492101494832  -40.29096090716739  23.312569936634947  120.000000
4.42365  0.000000  0.000000  0.000000  -32.902170937873926  1.969806033186765  -12.099699258654308  39.773465264417304  12.730775604031631  5.9678751802540875  60.07349928247824  15.104798975986073  -37.36490544508783  23.335735942549544  120.000000
4.4811  0.000000  0.000000  0.000000  -33.02179499182722  2.4894955169517923  -12.565244150031816  39.33445424666166  12.484792421119257  6.389849486248668  58.04582110868061  17.577652000147854  -35.68258758026607  23.361868054477338  120.000000
4.53855  0.000000  0.000000  0.000000  -33.48110584134849  3.3262814066816904  -12.889573319392019  38.990243049126434  12.25174599981412  7.010301351868529  56.79344923509472  20.399814685415294  -34.99740895670464  23.449504567991266  120.000000
4.596  0.000000  0.000000  0.000000  -34.30188059120525  4.490940738760059  -13.005905458503529  38.777508428883756  12.052663797649151  7.812261242387925  56.01812405490608  23.496307916142047  -35.020333566582856  23.634446255349335  120.000000
4.65345  0.000000  0.000000  0.000000  -35.44324856629503  5.951423781932217  -12.841156124162392  38.72026604696275  11.90564704134791  8.762924369631202  55.464452060077065  26.76208275800421  -35.49938679767908  23.910176456403857  120.000000
4.7109000000000005  0.000000  0.000000  0.000000  -36.810360318886985  7.645155577001785  -12.323522014417843  38.82523181940887  11.825585723904236  9.815933136747228  54.942503948472044  30.065831249057275  -36.2381939936644  24.22491168640572  120.000000
4.76835  0.000000  0.000000  0.000000  -38.28770981574863  9.498202071350345  -11.390830801448057  39.07667795751727  11.823896968823723  10.915527652717094  54.32415836821087  33.26196452599113  -37.09277482519324  24.500211940010868  120.000000
4.8258  0.000000  0.000000  0.000000  -39.78068853885063  11.432499019050658  -9.99824001546193  39.44200708207667  11.90346540957068  12.003492647278797  53.533327430087034  36.220478008167376  -37.96744223431767  24.659616009001155  120.000000
4.88325  0.000000  0.000000  0.000000  -41.245518858224955  13.36357100062929  -8.124101157358888  39.882900429862765  12.048424935836865  13.029581880925313  52.533976279982895  38.85443142509596  -38.8081313067207  24.652150139620552  120.000000
4.9407  0.000000  0.000000  0.000000  -42.69002337127273  15.205219010523315  -5.7785221208859525  40.37356359968303  12.227915423731684  13.949002266499987  51.31077726471704  41.13705250395621  -39.58694684967964  24.45786722247261  120.000000
4.99815  0.000000  0.000000  0.000000  -44.15231727492126  16.87578841368955  -3.0038937085289983  40.90447115711536  12.40063000232953  14.733627987264175  49.866306171498465  43.09913606617436  -40.291419026219515  24.08197433155745  120.000000
5.0556  0.000000  0.000000  0.000000  -45.662875963961085  18.31038794650564  0.12220832361585295  41.48513017296683  12.529881275269725  15.37919999464511  48.226605415391674  44.80899505962019  -40.91631635948528  23.547757100791248  120.000000
5.11305  0.000000  0.000000  0.000000  -47.22123377782397  19.468262108638168  3.4829594701429385  42.13306371444398  12.599194981231639  15.898164809406332  46.427926049682235  46.3467534212474  -41.45018898374602  22.892566824073143  120.000000
